# xmcd
#
# Track frame offsets: 
#        150
#        4588
#        10285
#        27756
#        45935
#        64495
#        78050
#        82652
#        99301
#        118241
#        131165
#        149061
#        163595
#        166821
#        180251
#        193440
#        207685
#        222424
#        244718
#        259473
#        276055
#
# Disc length: 3888 seconds
#
# Revision: 0
# Processed by: cddbd v1.5.2PL0 Copyright (c) Steve Scherf et al.
# Submitted via: ExactAudioCopyFreeDBPlugin 1.0
#
DISCID=280f2e15
DTITLE=Azad - Game Over
DYEAR=2006
DGENRE=Rap
TTITLE0=Game Over Symphonie
TTITLE1=Intro
TTITLE2=Alarm
TTITLE3=Streetlife feat Akon
TTITLE4=Krankfurt
TTITLE5=Headbanger feat. Jonesmann
TTITLE6=Think Positive (Skit)
TTITLE7=Eines Tages feat. Cassandra Steen
TTITLE8=Wenn es dunkel wird feat. Warheit
TTITLE9=K.O.
TTITLE10=Alles wird gut
TTITLE11=Meine Zeit feat. Jonesmann
TTITLE12=Frieden (Skit)
TTITLE13=Weisse Taube feat. Xavier Naidoo
TTITLE14=Sohn des Betons
TTITLE15=W.A.R. feat. Warheit
TTITLE16=Mein Song feat. J-Luv
TTITLE17=Stadtfalke feat. Sivan Perwer
TTITLE18=My Lifetime
TTITLE19=Auge des Sturms feat. Saad
TTITLE20=Game Over feat. Jonesmann and Sti
EXTD=
EXTT0=
EXTT1=
EXTT2=
EXTT3=
EXTT4=
EXTT5=
EXTT6=
EXTT7=
EXTT8=
EXTT9=
EXTT10=
EXTT11=
EXTT12=
EXTT13=
EXTT14=
EXTT15=
EXTT16=
EXTT17=
EXTT18=
EXTT19=
EXTT20=
PLAYORDER=
